<?xml version="1.0" encoding="UTF-8"?>
<svg id="Layer_1" data-name="Layer 1" xmlns="http://www.w3.org/2000/svg" viewBox="0 0 283.46 283.46">
  <defs>
    <style>
      .cls-1 {
        fill: none;
      }

      .cls-1, .cls-2 {
        stroke-width: 0px;
      }

      .cls-2 {
        fill: #231f20;
      }
    </style>
  </defs>
  <rect class="cls-1" x="6.84" y="6.84" width="269.79" height="269.79" rx="27.65" ry="27.65"/>
  <path class="cls-2" d="m68.98,119.4c-.83.72-1.62,1.35-2.35,2.04-2.32,2.2-4.6,4.44-6.92,6.64-.5.48-.53.85-.18,1.46,9.47,16.35,18.91,32.72,28.36,49.08.68,1.17,1.21,2.36,1.03,3.76-.3,2.29-1.82,3.97-4.01,4.42-2.16.44-4.28-.5-5.43-2.49-2.84-4.9-5.67-9.81-8.5-14.72-6.13-10.62-12.27-21.25-18.41-31.87-.13-.22-.27-.44-.45-.74-.24.3-.45.52-.62.77-1.72,2.44-3.46,4.87-5.15,7.34-1.58,2.31-4.22,3.41-6.85,2.77-2.68-.65-4.56-2.85-4.82-5.67-.14-1.57.34-2.97,1.2-4.27,3.82-5.81,8.04-11.31,12.74-16.44,10.67-11.65,23.03-21.06,37.22-28.02,4.07-2,8.34-3.62,12.51-5.41.35-.15.72-.27,1.14-.44-.15-.29-.25-.52-.37-.73-4.45-7.72-8.93-15.43-13.36-23.17-1.87-3.27-1.88-6.64.1-9.85,1.97-3.19,4.96-4.69,8.69-4.46,3.38.21,5.96,1.89,7.65,4.82,5.29,9.13,10.56,18.27,15.81,27.42.39.68.76.84,1.53.7,6.82-1.22,13.69-1.87,20.62-1.95,19.04-.22,37.21,3.64,54.5,11.61,13.25,6.11,25.05,14.35,35.46,24.56,6.52,6.39,12.24,13.44,17.29,21.05,1.84,2.77,1.83,5.43-.01,8.2-4.74,7.15-10.05,13.84-16.11,19.91-13.2,13.22-28.53,23.14-46.07,29.61-.39.14-.77.29-1.24.46.16.31.28.55.42.79,4.43,7.68,8.87,15.35,13.29,23.03,3.45,5.99.06,13.19-6.74,14.33-3.75.63-7.65-1.24-9.64-4.68-6.86-11.86-13.7-23.72-20.55-35.58-4.31-7.47-8.62-14.95-12.96-22.41-.14-.24-.51-.53-.73-.5-3.05.52-6.1.57-9.17.23-.07,0-.15.02-.37.05.18.33.32.62.48.89,4.23,7.34,8.48,14.67,12.7,22.02,1.96,3.41-.12,7.41-4.01,7.68-2.11.15-3.71-.83-4.77-2.65-4.69-8.12-9.38-16.25-14.07-24.38-2.16-3.74-4.31-7.48-6.47-11.21-.21-.36-.46-.7-.74-.99-3.49-3.59-5.95-7.78-7.34-12.6-.14-.47-.31-.94-.56-1.36-7.94-13.78-15.9-27.55-23.85-41.33-.14-.25-.29-.49-.5-.83-3.9,2.06-7.61,4.35-11.3,6.88.19.35.36.67.53.97,14.84,25.7,29.68,51.41,44.53,77.1.89,1.54,1.33,3.11.7,4.83-.71,1.93-2.13,3.08-4.16,3.31-2.16.24-3.88-.63-4.99-2.51-2.28-3.88-4.51-7.78-6.75-11.68-12.54-21.72-25.08-43.44-37.62-65.16-.1-.18-.22-.35-.41-.65Zm56.4-25.2c.1.25.13.35.18.44,3.39,5.88,6.78,11.75,10.16,17.63.26.45.56.41.98.34,6.23-1.02,12.24-.26,17.93,2.51,17.26,8.42,22.08,30.58,9.89,45.39-.41.5-.46.85-.13,1.42,2.82,4.83,5.6,9.67,8.39,14.51.32.56.66,1.11,1.06,1.79,1.03-1.01,2.01-1.92,2.94-2.89,15.87-16.48,18.16-42,5.17-60.81-10.22-14.78-24.66-21.65-42.52-21.46-3.32.04-6.64.38-9.96.62-1.34.1-2.67.32-4.1.5Zm65.14,9.74l-.15.17c8.44,11.12,12.79,23.66,12.79,37.61,0,13.95-4.38,26.48-12.75,37.65.35-.08.61-.19.86-.32,8.31-4.05,16.02-9.02,23.12-14.94,7.66-6.4,14.34-13.71,20.13-21.84.31-.44.29-.73-.02-1.16-2.91-4.06-6.03-7.95-9.41-11.63-8.21-8.9-17.6-16.3-28.18-22.19-2.1-1.17-4.26-2.25-6.4-3.37Zm-76.28,26.76c.14-.21.22-.3.27-.41,1.19-2.79,2.75-5.36,4.73-7.66.33-.38.16-.64-.03-.96-4.29-7.42-8.58-14.84-12.85-22.27-.28-.48-.53-.59-1.05-.39-2.3.89-4.62,1.74-6.92,2.61-.23.09-.45.22-.74.36,5.54,9.6,11.04,19.12,16.59,28.74Z"/>
</svg>