<svg xmlns="http://www.w3.org/2000/svg" viewBox="0 0 281 646" width="281" height="646" role="img" aria-label="Character silhouette">
  <path d="M 97.50,5.00 L 95.50,7.00 L 94.00,7.25 L 91.50,10.00 L 90.00,10.25 L 88.25,12.00 L 87.25,11.00 L 83.50,15.00 L 81.00,14.75 L 80.25,14.00 L 79.25,15.00 L 79.00,20.50 L 72.25,27.00 L 72.25,28.75 L 74.00,30.50 L 71.25,33.00 L 71.00,34.50 L 70.25,35.00 L 70.00,36.50 L 69.25,37.00 L 69.00,38.50 L 68.25,39.00 L 68.25,41.75 L 69.50,41.75 L 71.00,43.25 L 71.00,46.50 L 70.25,47.00 L 70.25,53.75 L 71.00,54.25 L 71.25,57.75 L 72.00,58.25 L 72.00,60.50 L 70.25,62.00 L 70.25,67.75 L 71.00,68.25 L 71.25,71.75 L 72.00,72.25 L 72.25,74.75 L 73.00,75.25 L 73.25,76.75 L 76.00,79.25 L 76.00,84.50 L 75.25,85.00 L 75.25,95.75 L 76.50,95.75 L 78.00,97.25 L 79.25,100.75 L 81.00,102.25 L 81.75,104.25 L 82.75,104.50 L 82.75,103.25 L 84.50,101.75 L 86.00,103.25 L 86.00,109.50 L 84.50,111.00 L 81.00,112.25 L 79.50,114.00 L 78.00,114.25 L 58.50,134.00 L 57.00,134.25 L 56.50,135.00 L 55.00,135.25 L 54.50,136.00 L 52.00,136.25 L 51.50,137.00 L 48.00,137.25 L 47.50,138.00 L 45.00,138.25 L 44.50,139.00 L 41.00,139.25 L 40.50,140.00 L 36.00,139.75 L 35.00,139.25 L 35.00,140.50 L 34.25,141.00 L 34.00,143.50 L 33.25,144.00 L 33.25,148.75 L 34.00,149.25 L 34.25,151.75 L 36.00,153.50 L 35.25,154.25 L 35.00,155.50 L 34.25,156.00 L 33.00,159.50 L 31.25,161.00 L 31.00,162.50 L 30.25,163.00 L 30.00,164.50 L 29.25,165.00 L 29.00,167.50 L 28.25,168.00 L 28.00,170.50 L 27.25,171.00 L 27.00,173.50 L 26.25,174.00 L 26.00,176.50 L 23.25,179.00 L 23.25,180.75 L 25.00,182.50 L 28.50,183.75 L 32.00,187.25 L 32.25,190.75 L 33.00,191.25 L 33.25,194.75 L 34.00,195.25 L 34.00,199.50 L 33.25,200.00 L 33.00,201.50 L 32.25,202.00 L 32.00,204.50 L 31.25,205.00 L 31.00,206.50 L 30.25,207.00 L 30.00,209.50 L 29.25,210.00 L 29.00,212.50 L 28.25,213.00 L 28.00,215.50 L 27.25,216.00 L 27.00,217.50 L 26.25,218.00 L 26.00,221.50 L 25.25,222.00 L 25.25,232.75 L 26.00,233.25 L 26.00,249.50 L 25.25,250.00 L 25.00,251.50 L 24.25,252.00 L 24.00,253.50 L 23.25,254.00 L 23.00,256.50 L 22.25,257.00 L 22.00,266.50 L 21.25,267.00 L 21.00,270.50 L 20.25,271.00 L 20.00,272.50 L 17.50,275.00 L 16.00,275.25 L 11.25,280.00 L 11.00,281.50 L 10.25,282.00 L 10.25,287.75 L 11.50,287.75 L 13.00,289.25 L 13.00,323.50 L 12.25,324.00 L 12.25,338.75 L 13.00,339.25 L 13.00,342.50 L 12.25,343.00 L 12.00,346.50 L 9.25,349.00 L 8.75,350.75 L 8.00,351.50 L 8.75,352.00 L 9.25,354.75 L 10.00,355.25 L 10.00,357.50 L 9.25,358.00 L 9.00,359.50 L 8.25,360.00 L 8.00,361.50 L 7.25,362.00 L 7.00,363.50 L 6.25,364.00 L 6.00,365.50 L 5.25,366.00 L 5.25,384.75 L 6.00,385.25 L 6.25,386.75 L 8.00,388.25 L 8.25,390.75 L 9.00,391.25 L 9.25,392.75 L 10.00,393.50 L 11.50,393.75 L 12.00,394.50 L 13.50,394.75 L 16.00,397.25 L 16.25,398.75 L 17.00,399.50 L 20.50,399.75 L 21.00,400.50 L 22.50,400.75 L 23.00,401.50 L 24.50,401.75 L 25.00,402.50 L 26.50,402.75 L 27.00,403.50 L 29.75,403.50 L 31.50,401.75 L 31.75,400.25 L 33.25,398.75 L 37.75,398.50 L 38.25,397.75 L 41.75,397.50 L 42.50,396.75 L 42.75,394.25 L 43.50,393.75 L 43.75,392.25 L 44.75,391.25 L 44.50,390.00 L 43.75,389.50 L 43.50,388.00 L 42.75,387.50 L 42.75,383.25 L 44.50,381.75 L 46.00,383.25 L 46.25,384.75 L 47.00,385.25 L 47.00,389.50 L 46.25,390.00 L 46.00,391.25 L 47.00,392.25 L 47.25,396.75 L 48.00,397.25 L 48.25,399.50 L 49.00,400.50 L 48.25,401.25 L 48.25,404.75 L 49.00,405.25 L 49.25,412.75 L 50.00,413.25 L 50.25,418.75 L 51.00,419.25 L 51.25,423.75 L 52.00,424.25 L 52.25,427.75 L 53.00,428.25 L 53.00,435.50 L 52.25,436.00 L 52.25,457.75 L 53.00,458.25 L 53.25,463.75 L 54.00,464.25 L 54.00,465.50 L 53.25,466.00 L 53.00,468.50 L 52.25,469.00 L 52.25,471.75 L 54.00,473.50 L 50.50,477.00 L 49.00,477.25 L 48.25,478.00 L 48.00,482.50 L 47.25,483.00 L 47.25,503.75 L 52.00,508.25 L 52.00,511.50 L 51.25,512.00 L 51.25,517.75 L 52.00,518.25 L 52.25,523.75 L 53.00,524.25 L 53.25,528.75 L 54.00,529.25 L 54.25,533.75 L 55.00,534.25 L 55.25,535.75 L 57.00,537.25 L 57.00,540.50 L 56.25,541.00 L 56.25,546.75 L 57.00,547.25 L 57.25,552.75 L 58.00,553.25 L 58.25,556.75 L 59.00,557.25 L 59.25,561.75 L 60.00,562.25 L 60.25,566.75 L 61.00,567.25 L 61.25,570.75 L 62.00,571.25 L 62.25,575.75 L 63.00,576.25 L 63.25,582.50 L 64.00,583.50 L 63.25,584.25 L 63.00,586.50 L 60.50,589.00 L 59.00,589.25 L 55.50,593.00 L 54.00,593.25 L 51.50,596.00 L 50.00,596.25 L 48.50,598.00 L 45.00,599.25 L 45.25,601.75 L 48.00,604.50 L 45.50,607.00 L 44.00,607.25 L 42.50,609.00 L 41.00,609.25 L 40.50,610.00 L 37.00,611.25 L 35.50,613.00 L 34.00,613.25 L 33.50,614.00 L 32.00,614.25 L 31.50,615.00 L 14.00,615.25 L 13.50,616.00 L 12.00,616.25 L 10.25,618.00 L 10.00,620.50 L 9.25,621.00 L 9.00,624.50 L 8.25,625.00 L 8.25,629.50 L 9.00,630.50 L 7.00,633.50 L 7.75,634.00 L 8.25,635.75 L 54.75,635.50 L 55.25,634.75 L 61.75,634.50 L 62.25,633.75 L 69.50,633.75 L 71.00,635.25 L 71.25,636.75 L 72.00,637.50 L 101.75,637.50 L 101.75,633.25 L 103.50,631.75 L 103.50,624.00 L 102.75,623.50 L 102.50,618.00 L 101.75,617.50 L 101.50,616.00 L 100.75,615.50 L 100.50,613.00 L 99.75,612.50 L 99.50,611.00 L 98.75,610.50 L 98.50,602.00 L 97.75,601.50 L 97.50,600.00 L 96.75,599.50 L 96.50,598.00 L 95.75,597.50 L 95.50,596.00 L 94.75,595.50 L 94.50,594.00 L 93.75,593.50 L 93.50,592.00 L 92.75,591.50 L 92.50,584.00 L 91.75,583.50 L 91.75,562.25 L 92.50,561.75 L 92.75,559.25 L 93.50,558.75 L 93.75,556.25 L 94.50,555.75 L 94.75,554.25 L 95.50,553.75 L 95.75,552.25 L 96.50,551.75 L 96.75,550.25 L 97.50,549.75 L 97.75,548.25 L 98.50,547.75 L 98.75,546.25 L 99.50,545.75 L 99.75,544.25 L 100.50,543.75 L 100.75,542.25 L 101.50,541.75 L 101.75,540.25 L 102.50,539.75 L 102.75,538.25 L 103.50,537.75 L 103.75,536.25 L 104.50,535.75 L 104.75,532.25 L 105.50,531.75 L 105.75,526.25 L 106.50,525.75 L 106.75,517.25 L 107.50,516.75 L 107.50,503.00 L 106.75,502.50 L 106.50,485.00 L 105.75,484.25 L 104.25,484.00 L 102.75,482.25 L 103.50,481.50 L 103.50,474.00 L 101.75,472.50 L 101.50,471.00 L 100.75,470.50 L 100.50,469.00 L 99.75,468.50 L 99.50,467.00 L 98.75,466.50 L 98.75,461.25 L 99.50,460.75 L 99.50,458.00 L 97.75,456.50 L 97.75,455.25 L 99.50,453.75 L 99.50,446.00 L 98.75,445.50 L 98.50,443.00 L 97.75,442.50 L 97.75,439.25 L 98.50,438.75 L 98.75,433.25 L 99.50,432.75 L 99.75,428.25 L 100.50,427.75 L 100.75,421.25 L 101.50,420.75 L 101.75,416.25 L 102.50,415.75 L 102.75,411.25 L 103.50,410.75 L 103.75,406.25 L 104.50,405.75 L 104.75,403.25 L 105.50,402.75 L 105.75,399.25 L 106.50,398.75 L 106.75,397.25 L 107.50,396.75 L 107.75,395.25 L 108.50,394.75 L 108.75,392.25 L 109.50,391.75 L 109.75,389.25 L 110.50,388.75 L 110.75,387.25 L 111.50,386.75 L 111.75,384.25 L 112.50,383.75 L 112.75,382.25 L 113.50,381.75 L 113.75,379.25 L 114.50,378.75 L 114.75,376.25 L 115.50,375.75 L 115.75,374.25 L 116.50,373.75 L 117.75,370.25 L 119.50,368.75 L 121.00,370.25 L 121.25,371.75 L 123.00,373.25 L 123.25,374.75 L 125.00,376.25 L 125.25,377.75 L 127.00,379.25 L 127.25,380.75 L 129.00,382.25 L 129.25,383.75 L 131.00,385.25 L 131.25,386.75 L 133.00,388.25 L 133.25,389.75 L 135.00,391.25 L 135.25,392.75 L 138.00,395.50 L 137.25,396.00 L 137.25,396.75 L 138.50,396.75 L 139.00,397.50 L 140.50,397.75 L 142.00,399.25 L 142.25,402.75 L 144.00,404.25 L 144.25,405.75 L 147.00,408.25 L 147.25,409.75 L 149.00,411.25 L 149.25,412.75 L 151.00,414.25 L 151.25,415.75 L 153.00,417.25 L 153.25,418.75 L 155.00,420.25 L 155.25,421.75 L 156.00,422.25 L 156.25,424.75 L 157.00,425.25 L 157.25,426.75 L 158.00,427.25 L 158.25,429.75 L 159.00,430.25 L 159.25,431.75 L 160.00,432.25 L 160.25,434.75 L 161.00,435.25 L 161.25,436.75 L 162.00,437.25 L 162.25,439.75 L 163.00,440.25 L 163.25,442.75 L 164.00,443.25 L 164.25,445.75 L 165.00,446.25 L 165.25,447.75 L 166.00,448.25 L 166.25,450.75 L 167.00,451.25 L 168.25,454.75 L 170.00,456.25 L 170.25,457.75 L 172.00,459.25 L 172.25,460.75 L 173.00,461.25 L 173.25,468.75 L 176.00,471.25 L 177.25,474.75 L 178.00,475.50 L 180.50,475.75 L 182.00,477.50 L 181.25,478.25 L 180.75,482.75 L 180.00,483.50 L 180.75,484.00 L 181.25,485.75 L 182.00,486.25 L 182.25,487.75 L 183.00,488.25 L 183.00,491.50 L 182.25,492.00 L 182.25,505.75 L 183.00,506.25 L 183.25,513.75 L 189.00,519.25 L 189.25,521.75 L 190.00,522.25 L 190.25,523.75 L 192.00,525.25 L 192.25,526.75 L 194.00,528.25 L 194.25,529.75 L 196.00,531.25 L 196.25,532.75 L 199.00,535.25 L 199.25,536.75 L 202.00,539.25 L 202.25,540.75 L 204.00,542.25 L 204.25,543.75 L 206.00,545.25 L 206.25,546.75 L 209.00,549.25 L 209.25,550.75 L 211.00,552.25 L 211.25,553.75 L 212.00,554.25 L 212.25,556.75 L 213.00,557.25 L 213.25,559.75 L 214.00,560.25 L 214.25,562.75 L 215.00,563.25 L 215.25,566.75 L 216.00,567.25 L 216.25,569.75 L 217.00,570.25 L 217.25,573.75 L 218.00,574.25 L 218.25,577.75 L 219.00,578.25 L 219.25,598.75 L 222.00,601.25 L 222.25,604.75 L 223.00,605.25 L 223.25,607.75 L 224.00,608.25 L 224.00,620.50 L 223.25,621.00 L 223.25,623.75 L 224.00,624.25 L 224.25,627.75 L 225.00,628.25 L 225.25,629.75 L 229.00,633.25 L 229.25,634.75 L 230.00,635.25 L 230.25,640.75 L 231.00,641.50 L 233.50,641.75 L 234.00,642.50 L 242.50,642.75 L 243.00,643.50 L 267.75,643.50 L 268.25,642.75 L 270.75,642.50 L 271.25,641.75 L 272.75,641.50 L 275.50,638.75 L 275.50,627.00 L 274.75,626.50 L 274.50,621.00 L 273.75,620.50 L 273.50,616.00 L 272.75,615.25 L 271.25,615.00 L 270.75,614.25 L 269.25,614.00 L 268.75,613.25 L 267.25,613.00 L 264.75,610.50 L 264.50,609.00 L 262.75,607.50 L 261.50,604.00 L 259.75,602.50 L 259.50,601.00 L 258.75,600.50 L 258.50,599.00 L 257.75,598.50 L 257.50,597.00 L 256.75,596.50 L 256.50,595.00 L 255.75,594.50 L 255.50,593.00 L 254.75,592.50 L 254.50,586.00 L 253.75,585.50 L 253.50,583.00 L 252.75,582.50 L 252.50,579.00 L 251.75,578.50 L 251.50,575.00 L 250.75,574.50 L 250.50,572.00 L 249.75,571.50 L 249.50,569.00 L 248.75,568.50 L 248.50,565.00 L 247.75,564.50 L 247.50,561.00 L 246.75,560.50 L 246.50,558.00 L 245.75,557.50 L 245.50,553.00 L 244.75,552.50 L 244.50,549.00 L 243.75,548.50 L 243.50,545.00 L 242.75,544.50 L 242.50,520.25 L 241.75,519.25 L 242.75,518.25 L 242.00,517.75 L 241.50,505.00 L 240.75,504.50 L 240.75,499.25 L 241.50,498.75 L 241.50,496.00 L 240.75,495.50 L 240.50,494.00 L 239.75,493.50 L 239.50,492.00 L 238.75,491.50 L 238.50,490.00 L 237.75,489.50 L 237.50,488.00 L 236.75,487.50 L 236.50,485.00 L 235.75,484.50 L 235.50,483.00 L 234.75,482.50 L 233.50,479.00 L 231.75,477.50 L 231.50,476.00 L 230.75,475.50 L 229.50,472.00 L 227.75,470.25 L 225.25,470.00 L 224.75,469.25 L 223.25,469.00 L 221.75,467.50 L 221.50,464.00 L 220.75,463.50 L 220.50,462.00 L 219.75,461.50 L 219.50,456.00 L 215.75,452.50 L 215.50,451.00 L 213.75,449.50 L 213.50,439.00 L 212.75,438.50 L 212.50,433.00 L 211.75,432.50 L 211.50,428.00 L 210.75,427.50 L 210.50,424.00 L 209.75,423.50 L 209.50,419.00 L 208.75,418.50 L 208.50,415.00 L 207.75,414.50 L 207.50,412.00 L 206.75,411.50 L 206.50,409.00 L 205.75,408.50 L 205.50,406.00 L 204.75,405.50 L 204.50,403.00 L 203.75,402.50 L 203.50,399.00 L 200.75,396.50 L 200.50,392.00 L 199.75,391.50 L 199.50,389.00 L 198.75,388.50 L 198.50,387.00 L 197.75,386.50 L 197.50,384.00 L 196.75,383.50 L 196.50,381.00 L 195.75,380.50 L 195.50,379.00 L 194.75,378.50 L 194.50,376.00 L 193.75,375.50 L 193.50,373.00 L 192.75,372.50 L 192.50,370.00 L 191.75,369.50 L 191.50,368.00 L 190.75,367.50 L 190.50,365.00 L 189.75,364.50 L 189.50,362.00 L 188.75,361.50 L 188.50,359.00 L 187.75,358.50 L 187.75,355.25 L 188.50,354.75 L 188.50,353.00 L 186.75,351.50 L 186.50,350.00 L 184.75,348.50 L 184.75,345.25 L 185.50,344.75 L 185.75,343.25 L 190.50,338.75 L 190.75,337.25 L 191.50,336.75 L 191.75,334.25 L 192.50,333.75 L 192.75,330.25 L 193.50,329.75 L 193.75,323.25 L 194.50,322.75 L 194.50,313.00 L 193.75,312.50 L 193.50,306.00 L 192.75,305.50 L 192.50,302.00 L 191.75,301.50 L 191.50,299.00 L 190.75,298.50 L 190.50,296.00 L 189.75,295.50 L 189.50,293.00 L 188.75,292.50 L 188.50,291.00 L 187.75,290.50 L 187.50,289.00 L 186.75,288.50 L 186.50,287.00 L 185.75,286.50 L 185.50,285.00 L 184.75,284.50 L 183.50,281.00 L 182.25,281.00 L 179.75,278.50 L 179.50,277.00 L 178.75,276.25 L 177.25,276.00 L 175.75,274.25 L 172.25,273.00 L 170.75,271.50 L 170.50,265.00 L 169.75,264.25 L 168.25,264.00 L 167.75,263.25 L 165.25,263.00 L 164.75,262.25 L 163.25,262.00 L 162.75,261.25 L 160.25,261.00 L 159.75,260.25 L 157.25,260.00 L 156.75,259.25 L 153.25,258.00 L 151.75,256.50 L 151.75,253.25 L 152.50,252.75 L 152.75,251.25 L 153.50,250.75 L 153.50,248.00 L 151.75,246.50 L 151.50,243.00 L 150.75,242.50 L 150.75,238.25 L 151.50,237.75 L 151.75,235.25 L 152.50,234.75 L 152.75,233.25 L 153.50,232.75 L 153.75,231.25 L 154.50,230.75 L 155.75,227.25 L 159.50,223.75 L 159.75,220.25 L 161.25,218.75 L 162.50,218.75 L 164.00,220.25 L 164.25,223.75 L 165.00,224.25 L 166.25,227.75 L 168.00,229.25 L 169.25,232.75 L 171.00,234.25 L 171.25,235.75 L 172.00,236.50 L 173.50,236.75 L 175.00,238.50 L 176.50,238.75 L 178.00,240.50 L 179.50,240.75 L 181.00,242.50 L 182.50,242.75 L 187.00,247.25 L 187.25,250.75 L 188.00,251.25 L 188.25,254.75 L 189.00,255.25 L 189.25,258.75 L 190.00,259.25 L 190.00,273.50 L 189.25,274.00 L 189.25,279.75 L 190.50,279.75 L 192.00,281.50 L 191.25,282.25 L 191.25,283.75 L 192.00,284.25 L 192.25,286.75 L 193.00,287.25 L 193.25,289.75 L 194.00,290.25 L 194.25,291.75 L 195.00,292.25 L 195.25,294.75 L 196.00,295.25 L 196.25,296.75 L 197.00,297.25 L 198.25,300.75 L 200.00,302.25 L 200.25,303.75 L 201.00,304.25 L 201.25,305.75 L 202.00,306.25 L 203.25,309.75 L 205.00,311.25 L 205.25,312.75 L 206.00,313.25 L 206.25,314.75 L 207.00,315.25 L 207.25,316.75 L 208.00,317.25 L 208.25,318.75 L 209.00,319.25 L 209.25,320.75 L 210.00,321.25 L 210.25,322.75 L 211.00,323.25 L 211.00,329.50 L 210.25,330.00 L 210.00,331.50 L 209.25,332.00 L 209.25,335.75 L 210.00,336.25 L 210.25,337.75 L 211.00,338.25 L 211.00,339.50 L 209.25,341.00 L 209.00,342.50 L 208.25,343.00 L 208.00,344.50 L 207.25,345.00 L 207.00,346.50 L 206.25,347.00 L 206.00,348.50 L 205.25,349.00 L 205.00,354.50 L 204.25,355.00 L 204.00,361.50 L 203.25,362.00 L 203.00,364.50 L 201.25,366.00 L 200.00,369.50 L 198.25,371.00 L 198.00,372.50 L 197.25,373.00 L 197.25,374.75 L 198.00,375.25 L 198.25,376.75 L 199.00,377.50 L 204.75,377.50 L 205.25,376.75 L 206.75,376.50 L 209.50,373.75 L 209.75,372.25 L 210.50,371.75 L 210.75,370.25 L 211.50,369.75 L 211.75,367.25 L 212.50,366.75 L 212.75,364.25 L 214.25,362.75 L 218.50,362.75 L 222.00,366.25 L 222.25,367.75 L 224.00,369.25 L 224.25,370.75 L 225.00,371.25 L 225.25,372.75 L 226.00,373.25 L 226.25,374.75 L 227.00,375.25 L 227.25,376.75 L 228.00,377.25 L 228.25,379.75 L 229.00,380.25 L 229.25,381.75 L 230.00,382.25 L 230.25,385.75 L 231.00,386.25 L 231.25,387.75 L 232.00,388.25 L 232.25,390.75 L 233.00,391.25 L 233.25,392.75 L 234.50,392.75 L 235.00,393.50 L 240.75,393.50 L 242.50,391.75 L 242.50,388.00 L 241.75,387.50 L 241.50,384.00 L 240.75,383.50 L 240.50,381.00 L 239.75,380.50 L 239.50,377.25 L 238.75,376.25 L 240.50,374.75 L 242.00,376.25 L 242.25,377.75 L 243.00,378.25 L 244.25,381.75 L 246.00,383.25 L 246.25,384.75 L 247.00,385.25 L 248.25,388.75 L 251.00,391.50 L 253.75,391.50 L 255.25,389.75 L 256.75,389.50 L 256.50,385.00 L 255.75,384.50 L 254.50,381.00 L 252.75,379.50 L 252.50,378.00 L 251.75,377.50 L 251.50,376.00 L 250.75,375.50 L 250.75,373.25 L 252.50,371.75 L 253.25,372.50 L 255.50,372.75 L 258.00,375.50 L 261.75,376.00 L 262.50,376.75 L 263.00,376.00 L 264.75,375.50 L 264.50,373.00 L 263.75,372.50 L 263.50,370.00 L 261.75,368.25 L 265.50,364.75 L 265.50,363.00 L 262.75,360.25 L 261.25,360.00 L 251.75,350.50 L 251.50,349.00 L 248.75,346.50 L 248.50,345.00 L 247.25,345.00 L 246.75,344.25 L 245.25,344.00 L 243.75,342.50 L 243.50,340.00 L 237.75,334.25 L 238.50,333.50 L 238.50,330.00 L 237.75,329.50 L 236.50,326.00 L 233.75,323.50 L 233.50,309.00 L 232.75,308.50 L 232.50,286.00 L 231.75,285.50 L 231.50,281.25 L 230.75,280.25 L 231.50,279.50 L 231.75,270.25 L 232.50,269.75 L 232.75,268.25 L 233.50,267.75 L 233.75,266.25 L 234.50,265.75 L 234.50,264.00 L 233.75,263.50 L 233.50,262.00 L 231.75,260.50 L 231.50,259.00 L 228.75,256.50 L 228.50,255.00 L 223.75,250.50 L 223.50,249.00 L 222.75,248.50 L 222.50,247.00 L 221.75,246.50 L 221.50,245.00 L 220.75,244.50 L 220.50,243.00 L 219.75,242.50 L 219.50,237.00 L 218.75,236.50 L 218.50,235.00 L 217.75,234.50 L 217.50,233.00 L 216.75,232.50 L 216.50,231.00 L 215.75,230.50 L 215.50,229.00 L 214.75,228.50 L 214.50,226.00 L 210.75,222.50 L 210.50,219.00 L 209.75,218.50 L 209.75,213.25 L 210.50,212.75 L 210.50,204.00 L 209.75,203.50 L 209.50,202.00 L 207.75,200.50 L 207.50,196.00 L 206.75,195.50 L 206.50,193.00 L 205.75,192.50 L 205.50,191.00 L 204.75,190.50 L 204.50,188.00 L 203.75,187.50 L 203.50,186.00 L 202.75,185.50 L 202.50,184.00 L 201.75,183.50 L 201.50,180.00 L 200.25,180.00 L 197.75,177.50 L 197.50,175.00 L 194.75,172.50 L 194.75,170.25 L 195.50,169.75 L 195.75,167.25 L 196.50,166.75 L 196.75,162.25 L 197.50,161.75 L 197.75,160.25 L 200.50,157.75 L 200.50,151.00 L 198.75,149.50 L 198.50,148.00 L 197.75,147.50 L 197.50,146.00 L 195.75,144.50 L 194.50,141.00 L 192.75,139.50 L 192.50,138.00 L 190.75,136.50 L 189.50,133.00 L 188.25,133.00 L 187.75,132.25 L 184.25,132.00 L 181.75,129.50 L 181.50,127.00 L 179.25,127.00 L 178.75,126.25 L 177.25,126.00 L 174.75,123.25 L 173.25,123.00 L 171.75,121.50 L 171.75,118.25 L 172.50,117.75 L 172.50,114.00 L 171.75,113.50 L 171.50,112.00 L 170.00,112.25 L 168.50,114.00 L 164.25,114.00 L 163.75,113.25 L 147.25,113.00 L 146.75,112.25 L 141.25,112.00 L 140.75,111.25 L 138.25,111.00 L 137.75,110.25 L 136.25,110.00 L 133.75,107.25 L 137.50,103.75 L 137.75,101.25 L 138.50,100.75 L 138.75,90.25 L 139.50,89.75 L 139.75,84.25 L 140.50,83.75 L 140.75,78.25 L 141.50,77.75 L 141.75,73.25 L 142.50,72.75 L 142.75,71.25 L 143.50,70.75 L 143.50,68.00 L 142.75,67.50 L 142.50,66.00 L 141.75,65.50 L 141.75,61.25 L 142.50,60.75 L 143.75,57.25 L 145.50,55.75 L 145.50,52.00 L 143.75,50.50 L 143.50,47.00 L 142.75,46.50 L 142.50,45.00 L 141.75,44.50 L 141.75,42.25 L 143.25,40.75 L 144.50,40.75 L 147.00,43.50 L 148.75,43.50 L 148.75,40.25 L 150.25,38.75 L 154.75,38.25 L 147.75,31.50 L 147.50,30.00 L 146.75,29.50 L 146.50,28.00 L 145.75,27.50 L 145.50,26.00 L 144.75,25.50 L 144.50,23.00 L 143.75,22.50 L 143.50,20.00 L 142.75,19.50 L 143.00,18.00 L 143.75,17.25 L 141.75,15.25 L 143.50,13.75 L 143.50,12.00 L 142.75,11.25 L 140.25,11.00 L 139.75,10.25 L 138.25,10.00 L 137.75,9.25 L 136.25,9.00 L 135.75,8.25 L 134.25,8.00 L 133.75,7.25 L 131.25,7.00 L 130.75,6.25 L 125.25,6.00 L 124.75,5.25 L 115.00,5.25 L 114.50,6.00 L 111.00,6.25 L 110.50,7.00 L 108.00,7.25 L 107.50,8.00 L 104.00,8.25 L 103.50,9.00 L 101.00,9.25 L 100.50,10.00 L 98.25,11.00 L 96.75,9.50 L 96.75,7.25 L 97.50,6.75 Z M 180.50,317.75 L 182.00,319.25 L 182.00,328.50 L 179.25,331.00 L 177.75,329.50 L 177.50,328.00 L 176.75,327.50 L 176.75,326.25 L 177.50,325.75 L 177.75,323.25 L 178.50,322.75 L 178.75,319.25 Z M 165.25,301.75 L 170.50,301.50 L 171.50,300.75 L 173.00,302.25 L 173.25,305.75 L 174.00,306.25 L 174.00,317.50 L 172.25,319.00 L 170.75,317.50 L 170.50,316.00 L 169.75,315.50 L 169.50,314.00 L 168.75,313.50 L 168.50,312.00 L 167.75,311.50 L 167.50,310.00 L 166.75,309.50 L 165.50,306.00 L 163.75,304.50 L 163.75,303.25 Z M 175.50,281.75 L 180.00,286.25 L 180.25,288.75 L 181.00,289.25 L 182.00,291.50 L 180.25,293.00 L 175.75,288.50 L 175.50,287.00 L 174.75,286.50 L 174.50,285.00 L 173.75,284.50 L 173.75,283.25 Z M 67.50,244.75 L 69.00,246.25 L 69.00,255.50 L 68.25,256.00 L 67.00,259.50 L 64.25,262.00 L 64.25,264.75 L 65.00,265.25 L 65.25,267.75 L 66.00,268.25 L 66.25,269.75 L 67.00,270.25 L 67.00,274.50 L 66.25,275.00 L 66.00,278.50 L 65.25,279.00 L 65.00,281.50 L 64.25,282.00 L 64.25,285.75 L 65.00,286.25 L 65.00,288.50 L 64.25,289.00 L 64.00,290.50 L 63.25,291.00 L 63.00,292.50 L 62.25,293.00 L 62.00,294.50 L 61.25,295.00 L 61.00,297.50 L 60.25,298.00 L 60.00,299.50 L 59.25,300.00 L 59.00,301.50 L 58.25,302.00 L 58.00,304.50 L 57.25,305.00 L 57.00,306.50 L 56.25,307.00 L 56.25,309.75 L 57.00,310.25 L 58.00,312.50 L 57.25,313.25 L 57.00,314.50 L 56.25,315.00 L 56.00,316.50 L 55.25,317.00 L 55.00,318.50 L 54.25,319.00 L 53.00,322.50 L 52.25,323.00 L 52.00,325.50 L 51.25,326.00 L 51.00,328.50 L 50.25,329.00 L 50.00,330.50 L 49.25,331.00 L 49.00,333.50 L 48.25,334.00 L 48.25,337.75 L 49.00,338.25 L 49.25,339.75 L 50.00,340.25 L 50.00,341.50 L 49.25,342.00 L 49.25,345.75 L 50.00,346.25 L 50.00,350.50 L 49.25,351.00 L 49.00,355.50 L 48.25,356.00 L 48.00,361.50 L 47.25,362.00 L 47.00,363.50 L 45.25,365.00 L 42.75,362.50 L 42.50,361.00 L 39.75,358.50 L 39.50,357.00 L 37.75,355.50 L 37.75,351.25 L 41.75,347.25 L 41.00,346.75 L 40.50,343.00 L 39.75,342.50 L 39.75,341.25 L 40.50,340.75 L 40.75,338.25 L 41.50,337.75 L 41.75,334.25 L 42.50,333.75 L 42.75,331.25 L 43.50,330.75 L 43.75,328.25 L 44.50,327.75 L 44.75,326.25 L 45.50,325.75 L 45.75,323.25 L 46.50,322.75 L 46.75,320.25 L 47.50,319.75 L 47.75,317.25 L 48.50,316.75 L 48.75,315.25 L 49.50,314.75 L 49.75,312.25 L 50.50,311.75 L 50.75,309.25 L 51.50,308.75 L 51.75,307.25 L 52.50,306.75 L 52.75,304.25 L 53.50,303.75 L 53.75,301.25 L 54.50,300.75 L 54.75,299.25 L 55.50,298.75 L 55.75,297.25 L 56.50,296.75 L 56.75,295.25 L 57.50,294.75 L 57.50,291.00 L 56.75,290.50 L 56.50,289.00 L 54.75,287.50 L 54.50,285.00 L 53.75,284.50 L 53.50,281.00 L 52.75,280.50 L 52.50,278.00 L 51.75,277.50 L 51.75,271.25 L 52.50,270.75 L 53.75,267.25 L 56.50,264.75 L 56.75,263.25 L 59.50,260.75 L 59.75,259.25 L 62.50,256.75 L 62.75,254.25 L 63.50,253.75 L 63.75,252.25 L 64.50,251.75 L 64.75,249.25 L 65.50,248.75 L 65.75,246.25 Z" fill="currentColor" fill-rule="evenodd" clip-rule="evenodd"/>
</svg>
