<?xml version="1.0" encoding="UTF-8"?><svg id="LH_Hearing_impaired" xmlns="http://www.w3.org/2000/svg" viewBox="0 0 300 300"><defs><style>.cls-1{fill:#05164d;}</style></defs><g id="icon"><path class="cls-1" d="M178.1750488,151.974945l-11.1000061-11.1000061c8.9498901-10.2000427,8.5749817-25.7749939-1.1750793-35.5249023-9.7499084-9.750061-25.3250122-10.1251221-35.5249023-1.1500549l-11.1250305-11.1250305c16.3749695-15.1499939,41.9000244-14.750061,57.7749634,1.1500549,15.8999634,15.8999634,16.2750244,41.3999939,1.1500549,57.749939Z"/><path class="cls-1" d="M241.4999389,236.4498901l-10.5999756,10.6001282-45-44.9751282c-1.6000366,5.4501343-1.8499756,10.8500671-1.8499756,16.25,0,26.3250732-20.3250122,40.1000977-40.3999329,40.1000977-20.6001282,0-37.3500061-17.9750061-37.3500061-40.1000977,0-4.3249512,3.5249329-7.8248596,7.849884-7.849884,4.3501282,0,7.8500366,3.5249329,7.8500366,7.849884,0,13.4500122,9.7250366,24.375,21.6500854,24.375,12.2749329,0,24.7000122-7.5248718,24.7000122-24.375,0-9.1499329.874939-18.6999512,5.3999329-28.374939L62.8999329,79.1499329l10.6001282-10.5999756,108.6248779,108.5499573,11.1500549,11.1500549,48.2249451,48.1999206Z"/><path class="cls-1" d="M224.0499878,122.2749328c0,11.3749695,0,34.3000793-20.249939,55.2999878l-11.1000061-11.1000061c14.3499756-14.9749756,15.6500244-30.5999756,15.6500244-44.1999817-.0500488-33.125-26.875-59.9499512-60-60-15.9251404-.0498962-31.1750793,6.2750244-42.3500061,17.5500488l-11.1000061-11.0749817c14.1249084-14.1751099,33.374939-22.1749878,53.474884-22.1749878,41.8000793,0,75.6750488,33.8999939,75.6750488,75.6999206Z"/></g></svg>