<?xml version="1.0" standalone="no"?>
<svg xmlns="http://www.w3.org/2000/svg" height="1128pt" preserveAspectRatio="xMidYMid meet" viewBox="0 0 1920 1128" width="1920pt">
  <path d="m9430 11274c-286-20-578-75-841-160-63-20-496-188-964-375-863-344-959-387-1144-511-288-193-523-463-686-788-62-123-388-915-431-1049-77-235-112-513-94-751 12-169 9-151 179-1005 76-385 138-701 137-702s-96 174-212 389l-211 391-659 182-658 181-102 422c-55 232-103 424-105 426s-332 234-734 515l-730 510-23-22c-13-12-235-236-492-497l-468-475 219-555c120-305 219-558 219-561 0-4-376-355-441-411-18-16-12-33 232-660 138-353 254-646 257-649 6-6 1241 277 1282 293 8 4-3 7-25 8s-258 18-525 38l-484 37-113 395c-62 217-111 400-109 405 2 6 218 192 479 415 262 223 476 407 476 410 1 4-144-16-321-42-176-27-322-47-324-46-8 9-245 771-242 779 6 17 392 468 401 468 6 1 944-663 994-703 1-1 55-233 120-515l118-514 1060-438c583-241 1088-450 1121-464l62-26 63-320 64-319 63 63c35 34 108 110 163 169l100 106-95 1183c-53 651-94 1184-93 1186 2 1 108-489 236-1090 127-600 237-1114 242-1140l11-48 28 81c15 44 43 106 61 138 46 77 179 209 259 255 78 45 1247 512 1334 532 83 20 242 19 330-2 75-18 346-148 448-216 129-86 250-251 292-398 33-112 66-332 66-433 0-207-82-395-233-533-63-57-50-49-517-349-387-248-466-293-565-318-123-31-191-30-535 9-363 40-347 38-451 71-189 61-340 198-429 389-42 90-58 148-74 277l-11 89-260-277c-226-241-279-303-407-483-229-319-278-442-278-695v-99l-135 226c-82 137-140 225-148 222-6-3-414-113-906-245-695-186-897-237-908-229-7 7-146 166-309 354l-295 342-187 6c-417 14-1922 50-1925 46-2-2-147-372-321-823l-318-819 24-22c12-13 237-199 498-415 261-215 474-395 473-399s-72-169-158-366c-85-197-154-361-153-365 2-4 187-159 413-345 226-187 485-401 576-476l166-137 639 570c351 313 646 576 654 585 12 12 8 12-20-2-49-24-942-485-1067-551l-102-53-309 325-309 326 348 731c192 402 347 732 346 733-2 2-155-114-341-258l-338-260-111 108c-62 60-203 198-314 306-112 109-203 201-203 204 0 9 229 737 233 740 2 2 324-8 717-21 649-23 716-27 731-42 9-10 172-204 363-430 191-227 351-415 355-417 4-3 560 103 1236 234 677 132 1233 236 1236 232 4-4 105-196 224-427 120-231 236-447 258-480 119-176 321-318 532-375 145-39 269-37 595 8 157 22 286 39 287 38s-25-168-58-371c-81-495-81-568-3-730 58-123 162-227 281-282 80-37 284-93 288-79 3 6 70 299 150 651s148 651 152 665c8 27 12-101 33-912l13-507 71-16c274-62 573-112 826-136 119-11 604-18 614-8 3 2 25 182 51 399 25 216 47 395 48 397 2 1 43-169 91-380 49-210 90-384 91-385 6-6 273 37 425 68 80 16 231 50 336 76l191 47 6 225c4 124 7 390 8 591 0 228 4 358 9 346 5-11 71-256 145-544 75-289 137-527 139-529 6-6 119 44 165 73 157 98 262 279 276 471 4 66-5 142-58 474-46 285-60 396-51 398 6 2 130-13 275-33 398-55 551-45 757 50 147 68 282 187 377 330 29 44 148 265 264 491l212 411 42-8c23-5 400-79 837-164 437-84 970-188 1184-230s395-75 402-73 167 185 355 408 351 417 363 431l22 26 712 23c391 13 714 21 718 17 8-7 234-717 234-733 0-6-142-149-315-319-230-224-319-305-328-297-61 49-645 500-655 506-7 4-2-17 12-46 27-61 652-1371 666-1398 8-14-44-73-301-343l-310-327-52 29c-29 16-234 122-457 236s-470 241-550 283c-121 62-140 70-115 44 17-16 310-280 653-585l623-555 577 476c317 261 579 477 580 478 2 1-54 134-123 296-70 161-142 327-161 370l-32 76 499 412c377 311 499 417 494 429-91 243-629 1619-635 1625-9 9-2054-30-2095-40-11-3-155-162-320-354-165-193-305-350-312-350-10 0-307 79-1642 436-90 24-167 41-171 39-4-3-66-103-136-222l-129-218-6 130c-11 238-64 366-279 665-120 166-178 236-402 473-144 152-263 275-265 273s-11-55-19-117c-27-204-89-336-218-464-93-92-178-145-289-180-93-30-643-95-798-95-115 0-224 25-319 74-90 46-871 546-931 596-95 80-177 210-220 350-59 188 1 612 113 797 46 76 129 165 202 217 97 69 361 200 453 225 93 25 241 30 333 11 87-18 1299-505 1369-550 143-92 260-244 302-390 7-25 15-48 18-52s62 257 130 580c270 1276 359 1686 360 1652 0-19-42-552-93-1185l-92-1150 160-163c87-89 161-160 164-157 3 2 33 144 67 315s64 312 66 313c2 2 504 210 1114 462 611 252 1114 461 1119 465 4 5 60 235 123 512 74 322 121 509 132 520 20 21 973 698 983 698 4 0 97-105 207-234l200-235-121-383c-66-211-124-386-127-390s-150 15-326 41c-176 27-321 47-322 47-2-1 213-186 477-412 263-225 479-416 479-424 1-8-49-191-110-405l-110-391-522-38c-287-21-523-39-524-40-2-1 284-69 635-151 350-81 642-150 648-152 8-3 492 1213 510 1283 4 15-49 69-225 231l-229 213 74 187c41 104 140 355 220 560l147 372-488 495c-272 276-493 492-499 488-6-3-338-234-737-513l-725-507-22-94c-55-238-179-748-183-752-2-2-170-49-374-105-203-56-498-136-655-179l-285-79-213-394c-118-217-211-383-208-369 20 98 287 1458 296 1510 18 104 24 413 11 525-17 146-47 281-90 413-51 153-379 949-441 1072-205 397-531 714-935 910-93 45-1525 620-1735 697-219 80-509 149-749 178-125 15-438 26-541 19zm647-7626c260-441 471-803 470-805-2-1-57 20-123 47-65 27-278 114-472 193l-352 144-378-154c-514-210-567-231-570-228-4 4 941 1605 947 1605 4 0 219-361 478-802z" transform="matrix(.1 0 0 -.1 0 1128)" fill="#000000" stroke="none" stroke-width="2" vector-effect="non-scaling-stroke"/>
</svg>
